<?xml version="1.0" encoding="utf-8"?>
<!-- Generator: Adobe Illustrator 24.3.0, SVG Export Plug-In . SVG Version: 6.00 Build 0)  -->
<svg version="1.1" id="Layer_1" xmlns="http://www.w3.org/2000/svg" xmlns:xlink="http://www.w3.org/1999/xlink" x="0px" y="0px"
	 viewBox="0 0 483.3 107.5" style="enable-background:new 0 0 483.3 107.5;" xml:space="preserve">
<style type="text/css">
	.st0{fill:#313271;}
	.st1{fill:#82BED2;}
</style>
<g>
	<g>
		<path class="st0" d="M483.3,42.1c0,7.8-2.3,10.1-8.5,12c-6.7,2-18.6,3.3-25.7,3.3c-8.4,0-18.9-0.5-27.8-2.6v-9h49.3V33.5h-34.9
			c-10.5,0-14.4-2.9-14.4-13.1v-5.3c0-8.1,2.4-10.5,8.9-12.2c6.6-1.7,17.4-2.8,24.5-2.8c8.6,0,18.9,0.7,27.8,2.7v9H434v10.3h34.9
			c10.5,0,14.4,2.8,14.4,13.1L483.3,42.1L483.3,42.1z"/>
		<path class="st0" d="M399.3,54.7c-10.2,2-20.5,2.6-30.5,2.6s-20.4-0.6-30.7-2.6v-52c10.2-2,20.6-2.7,30.5-2.7
			c10,0,20.1,0.6,30.3,2.7v9.2h-46.2v10.4h30.1v10.8h-30.1v12.3h46.4v9.3H399.3z"/>
		<path class="st0" d="M320.5,54.7c-9.2,2-18.4,2.6-27.3,2.6s-18.3-0.5-27.5-2.6V1.3h14.7v43.5h40.1L320.5,54.7L320.5,54.7z"/>
		<path class="st0" d="M248.1,55.1c-4.9,1.4-11.4,1.9-16.2,2l-22.7-45.8h-1.3l-22.6,45.8c-4.8-0.1-10.5-0.6-15.4-2l28.7-53.8h20.5
			L248.1,55.1z"/>
		<path class="st1" d="M218.2,41.4c0,5.3-4.3,9.5-9.6,9.5s-9.5-4.3-9.5-9.5c0-5.3,4.3-9.5,9.5-9.5C213.9,31.9,218.2,36.1,218.2,41.4
			"/>
		<path class="st0" d="M152.2,55.1c-4.7,1.4-9.7,1.8-14.7,1.9V33.7H101V57c-5-0.1-10-0.6-14.7-1.9V2.3C91,0.9,96,0.5,101,0.4v22.5
			h36.5V0.4c5,0.1,10,0.6,14.7,1.9V55.1z"/>
		<path class="st0" d="M65.7,12.1H39.9v44H25.3v-44H-0.5V2.7C10.6,0.7,21.8,0,32.6,0s22,0.6,33.1,2.7V12.1z"/>
	</g>
	<g>
		<g>
			<path class="st1" d="M16.7,76.9c1.4,1,2.1,2.9,2.1,5.5c0,3.6-1,5.2-3.7,5.7v0.1c3.1,0.4,4.2,2.2,4.2,5.9c0,2.6-0.7,4.4-2.1,5.4
				s-3.6,1.5-6.8,1.5c-3.9,0-7.1-0.1-9.9-0.3c-0.3,0-0.5-0.2-0.5-0.5v-24c0-0.4,0.1-0.4,0.5-0.5c2.6-0.2,5.7-0.4,9.1-0.4
				C13,75.4,15.3,75.9,16.7,76.9z M5.3,79.8v6.5h3.3c1.9,0,3.3-0.2,3.9-0.6c0.7-0.4,1-1.3,1-2.6c0-2.6-1.2-3.3-4.4-3.3L5.3,79.8
				L5.3,79.8z M5.3,90v6.5h4.9c2.9,0,4-0.8,4-3.1c0-2.6-1.2-3.4-3.9-3.4H5.3z"/>
			<path class="st1" d="M38.2,82.5c0.3,0,0.5,0.2,0.5,0.5v16.9c0,0.4-0.1,0.5-0.5,0.6c-1.9,0.4-4.5,0.6-7.8,0.6s-5-0.3-6.3-1.4
				c-1.3-1.2-1.6-3-1.6-6.4V83.2c0-0.3,0.2-0.5,0.5-0.5h3.9c0.3,0,0.5,0.2,0.5,0.5V92c0,1.6,0.1,2.7,0.3,3.4c0.4,1.3,1,1.5,3.2,1.5
				h2.9V83.1c0-0.3,0.2-0.5,0.5-0.5h3.9V82.5z"/>
			<path class="st1" d="M47.8,77.5c0,1.7-1,2.6-2.8,2.6s-2.9-1-2.9-2.6c0-1.7,1-2.6,2.9-2.6C46.8,74.8,47.8,75.8,47.8,77.5z
				 M46.9,82.5c0.3,0,0.5,0.2,0.5,0.5v17.3c0,0.4-0.2,0.5-0.5,0.5H43c-0.3,0-0.5-0.2-0.5-0.5V83c0-0.3,0.2-0.5,0.5-0.5H46.9z"/>
			<path class="st1" d="M55.7,75.6c0.3,0,0.5,0.2,0.5,0.5v24.2c0,0.4-0.2,0.5-0.5,0.5h-3.9c-0.3,0-0.5-0.2-0.5-0.5V76.1
				c0-0.3,0.2-0.5,0.5-0.5H55.7z"/>
			<path class="st1" d="M75.4,75.6c0.3,0,0.5,0.2,0.5,0.5v23.5c0,0.5-0.2,0.8-0.7,0.8c-2.6,0.4-5,0.6-7.2,0.6
				c-3.4,0-5.7-0.6-6.8-1.9c-1.1-1.2-1.7-3.7-1.7-7.4s0.5-6.1,1.5-7.4c1-1.3,3-1.9,6-1.9c1.5,0,2.8,0.1,4,0.2v-6.5
				c0-0.4,0.2-0.5,0.5-0.5L75.4,75.6L75.4,75.6z M71,86.6h-2.9c-1.6,0-2.6,0.3-3.1,0.9s-0.7,2-0.7,4.1s0.2,3.4,0.6,4.1
				c0.4,0.7,1.4,1,2.9,1c1.2,0,2.2-0.1,3.1-0.2L71,86.6L71,86.6z"/>
			<path class="st1" d="M85,77.5c0,1.7-1,2.6-2.8,2.6s-2.9-1-2.9-2.6c0-1.7,1-2.6,2.9-2.6C84,74.8,85,75.8,85,77.5z M84.1,82.5
				c0.3,0,0.5,0.2,0.5,0.5v17.3c0,0.4-0.2,0.5-0.5,0.5h-3.9c-0.3,0-0.5-0.2-0.5-0.5V83c0-0.3,0.2-0.5,0.5-0.5H84.1z"/>
			<path class="st1" d="M103,83.8c1.3,1.2,1.6,3,1.6,6.4v10.1c0,0.4-0.2,0.5-0.5,0.5h-3.9c-0.3,0-0.5-0.2-0.5-0.5v-8.8
				c0-2.4,0-3.5-0.7-4.2c-0.6-0.7-1.1-0.7-2.8-0.7h-3v13.7c0,0.4-0.2,0.5-0.5,0.5h-3.9c-0.3,0-0.5-0.2-0.5-0.5V83.4
				c0-0.4,0.2-0.4,0.5-0.5c1.7-0.4,4.2-0.6,7.8-0.6C100,82.4,101.7,82.6,103,83.8z"/>
			<path class="st1" d="M123.6,83c0.5,0.1,0.7,0.3,0.7,0.8v16.6c0,2.1-0.2,3.4-0.8,4.6c-0.8,1.8-3,2.5-7.2,2.5c-2.3,0-4.3-0.2-6-0.5
				c-0.3,0-0.5-0.2-0.5-0.5V104c0-0.3,0.2-0.5,0.5-0.5h5.6c2.8,0,3.6-0.6,3.6-2.8v-0.2c-1.3,0.2-2.6,0.4-4,0.4c-3,0-5-0.7-6-2
				S108,95,108,91.3c0-3.6,0.6-6,1.7-7.2c1.1-1.2,3.4-1.8,6.8-1.8C118.9,82.4,121.3,82.6,123.6,83z M119.4,86.6h-3.2
				c-1.5,0-2.4,0.3-2.9,1c-0.4,0.7-0.6,2-0.6,4.1s0.2,3.5,0.7,4.2c0.5,0.6,1.5,0.9,3.1,0.9c1.2,0,2.2-0.1,2.9-0.2V86.6z"/>
			<path class="st1" d="M147.8,83.8c1.1,0.9,1.7,2.3,1.7,4.2v11.3c0,0.5-0.2,0.8-0.7,1c-2,0.5-4.5,0.7-7.4,0.7
				c-2.7,0-4.1-0.1-5.5-0.9c-1.4-0.8-2-2.3-2-4.8c0-2.1,0.6-3.5,1.6-4.2c1.1-0.8,2.8-1.1,5.1-1.1h4.1v-1.2c0-1.5-1-2.3-3.1-2.3h-5.9
				c-0.4,0-0.5-0.1-0.5-0.5v-2.7c0-0.4,0.1-0.4,0.5-0.5c1.7-0.3,3.6-0.5,5.9-0.5C144.7,82.4,146.7,82.8,147.8,83.8z M144.7,93.1
				h-3.8c-1.7,0-2.3,0.5-2.3,2s0.7,2,2.8,2c1.4,0,2.5-0.1,3.3-0.3V93.1z"/>
			<path class="st1" d="M170.6,75.7c0.4,0.1,0.5,0.3,0.5,0.6V79c0,0.4-0.2,0.5-0.6,0.5h-2.6c-1.3,0-1.8,0.2-1.8,1.3v1.7h4
				c0.3,0,0.5,0.2,0.4,0.6l-0.5,2.7c-0.1,0.3-0.3,0.5-0.6,0.5h-3.3v14c0,0.4-0.2,0.5-0.5,0.5h-3.9c-0.3,0-0.5-0.2-0.5-0.5v-14h-2.1
				c-0.4,0-0.6-0.2-0.6-0.5V83c0-0.3,0.2-0.5,0.6-0.5h2.1v-2.6c0-2,0.6-3.2,1.8-3.9c1.2-0.6,2.3-0.8,3.9-0.8
				C168.3,75.4,169.5,75.5,170.6,75.7z"/>
			<path class="st1" d="M188.5,82.5c0.3,0,0.5,0.2,0.5,0.5v16.9c0,0.4-0.1,0.5-0.5,0.6c-1.9,0.4-4.5,0.6-7.8,0.6
				c-3.3,0-5-0.3-6.3-1.4c-1.3-1.2-1.6-3-1.6-6.4V83.2c0-0.3,0.2-0.5,0.5-0.5h3.9c0.3,0,0.5,0.2,0.5,0.5V92c0,1.6,0.1,2.7,0.3,3.4
				c0.4,1.3,1,1.5,3.2,1.5h2.9V83.1c0-0.3,0.2-0.5,0.5-0.5h3.9V82.5z"/>
			<path class="st1" d="M198.2,77.5c0.4-0.1,0.5,0.1,0.5,0.5v4.7h3c0.4,0,0.6,0.2,0.6,0.5v2.6c0,0.3-0.2,0.5-0.6,0.5h-3v8.9
				c0,1.3,0.5,1.7,1.9,1.7h1.3c0.4,0,0.6,0.2,0.6,0.5v2.8c0,0.4-0.2,0.6-0.5,0.6c-1,0.2-1.9,0.3-2.8,0.3c-1.4,0-2,0-3.1-0.3
				c-1.5-0.4-2.2-1.4-2.3-3.9V86.4h-1.9c-0.4,0-0.5-0.2-0.5-0.5v-2.6c0-0.3,0.2-0.5,0.5-0.5h1.9v-3.6c0-0.3,0.2-0.5,0.5-0.5
				L198.2,77.5z"/>
			<path class="st1" d="M220.8,82.5c0.3,0,0.5,0.2,0.5,0.5v16.9c0,0.4-0.1,0.5-0.5,0.6c-1.9,0.4-4.5,0.6-7.8,0.6s-5-0.3-6.3-1.4
				c-1.3-1.2-1.6-3-1.6-6.4V83.2c0-0.3,0.2-0.5,0.5-0.5h3.9c0.3,0,0.5,0.2,0.5,0.5V92c0,1.6,0.1,2.7,0.3,3.4c0.4,1.3,1,1.5,3.2,1.5
				h2.9V83.1c0-0.3,0.2-0.5,0.5-0.5h3.9V82.5z"/>
			<path class="st1" d="M235.3,82.7c0.4,0.1,0.5,0.3,0.5,0.7v2.7c0,0.3-0.2,0.5-0.6,0.5h-3.1c-1.8,0-2.3,0.3-2.3,1.7v12.1
				c0,0.4-0.2,0.5-0.5,0.5h-3.9c-0.3,0-0.5-0.2-0.5-0.5V87.1c0-1.6,0.5-2.7,1.2-3.4c1.2-1,2.9-1.2,4.7-1.2
				C232.8,82.4,234.2,82.5,235.3,82.7z"/>
			<path class="st1" d="M252.2,84.2c1.1,1.2,1.6,3.6,1.6,7.2v1c0,0.7-0.2,0.9-1,0.9h-10.2c0,1.4,0.3,2.4,0.8,2.8
				c0.5,0.4,1.5,0.7,2.9,0.7h5.8c0.3,0,0.5,0.2,0.5,0.5v2.7c0,0.3-0.2,0.5-0.5,0.5c-1.5,0.3-3.5,0.5-6.2,0.5c-3.3,0-5.5-0.6-6.6-1.9
				c-1.1-1.2-1.6-3.7-1.6-7.4c0-3.8,0.6-6.2,1.6-7.4c1.1-1.2,3.3-1.9,6.6-1.9C249.1,82.4,251.2,83,252.2,84.2z M242.5,90.2h6.5
				c0-2.8-0.8-3.6-3.2-3.6C243.4,86.6,242.6,87.3,242.5,90.2z"/>
			<path class="st0" d="M287.6,83c0.4,0,0.4,0.1,0.4,0.5l-2.9,13.8c-0.4,1.6-0.8,2.6-1.2,3.1c-0.4,0.4-1.3,0.6-2.6,0.6
				c-1.4,0-2.3-0.2-2.6-0.6c-0.4-0.4-0.8-1.4-1.1-3.1l-2.1-9.1l-2.1,9.1c-0.4,1.7-0.8,2.7-1.1,3.1c-0.4,0.4-1.2,0.6-2.6,0.6
				c-1.3,0-2.2-0.2-2.6-0.6c-0.4-0.4-0.8-1.5-1.2-3.1L263,83.5c0-0.4,0-0.5,0.4-0.5h2.4c0.2,0,0.3,0.2,0.4,0.5l2.4,13.4
				c0.3,1.1,0.4,1.2,0.9,1.2c0.6,0,0.6-0.1,0.9-1.2l3.2-12.9c0.1-0.4,0.2-0.5,0.5-0.5h2.7c0.2,0,0.4,0.2,0.5,0.5l3.2,12.9
				c0.3,1.1,0.3,1.2,0.9,1.2c0.5,0,0.6-0.2,0.9-1.2l2.7-13.4c0.1-0.4,0.2-0.5,0.4-0.5H287.6z"/>
			<path class="st0" d="M303.9,84.5c0.9,1.1,1.5,3.4,1.5,6.9v0.9c0,0.7-0.2,0.9-1.2,0.9h-10.4c0,2,0.3,3.3,0.9,4s1.7,1,3.5,1h5.4
				c0.3,0,0.5,0.2,0.5,0.5v1.4c0,0.3-0.2,0.5-0.5,0.5c-1.4,0.2-3.3,0.3-5.5,0.3c-3,0-5.1-0.6-6-1.8s-1.4-3.6-1.4-7.3
				s0.5-6.1,1.4-7.3s3-1.8,6-1.8C301,82.8,303,83.4,303.9,84.5z M294.7,86.6c-0.6,0.7-0.8,2.1-0.9,4.1h8.5c0-2.1-0.3-3.5-0.8-4.2
				s-1.6-1-3.3-1C296.4,85.5,295.3,85.9,294.7,86.6z"/>
			<path class="st0" d="M328.4,83.1c0.3,0,0.5,0.2,0.5,0.6v1.4c0,0.3-0.2,0.5-0.5,0.5h-4.9c-1.9,0-3.1,0.4-3.7,1.2
				c-0.5,0.8-0.8,2.5-0.8,5.2c0,2.6,0.3,4.3,0.8,5.1s1.7,1.2,3.7,1.2h4.9c0.3,0,0.5,0.2,0.5,0.5v1.4c0,0.3-0.2,0.5-0.5,0.6
				c-1.4,0.2-3.1,0.3-5,0.3c-3.3,0-5-0.4-6.2-1.8c-1.1-1.4-1.4-3.4-1.4-7.2s0.3-5.8,1.4-7.2c1.2-1.5,2.9-1.9,6.2-1.9
				C325.3,82.8,327,82.9,328.4,83.1z"/>
			<path class="st0" d="M345.3,87.9v11.4c0,0.5-0.2,0.8-0.6,0.9c-1.3,0.5-3.7,0.7-7.2,0.7c-2.3,0-3.9-0.4-4.9-1
				c-0.9-0.7-1.4-2.1-1.4-4.2c0-3.8,1.9-5,5.8-5h5.3v-2.2c0-2.1-1.2-2.9-4.2-2.9h-4.9c-0.4,0-0.5-0.1-0.5-0.5v-1.3
				c0-0.4,0.1-0.4,0.5-0.5c1.5-0.3,3.2-0.4,4.9-0.4C343,82.8,345.3,84.4,345.3,87.9z M342.2,93.2H337c-1.9,0-2.7,0.7-2.7,2.4
				c0,2.1,1,2.6,3.8,2.6c1.8,0,3.2-0.1,4.2-0.4L342.2,93.2L342.2,93.2z"/>
			<path class="st0" d="M360.6,83c0.8,0.1,1.6,0.5,2.3,1c1.3,1,1.6,2.9,1.6,6.4v9.9c0,0.3-0.2,0.5-0.6,0.5h-2.1
				c-0.3,0-0.5-0.2-0.5-0.5v-9.6c0-2-0.2-3.2-0.5-3.9c-0.2-0.4-0.4-0.7-0.8-0.8c-0.8-0.4-1.3-0.4-2.8-0.4h-4.5v14.8
				c0,0.3-0.2,0.5-0.5,0.5H350c-0.3,0-0.5-0.2-0.5-0.5V83.9c0-0.4,0.2-0.5,0.5-0.5c1.8-0.4,4.1-0.5,6.8-0.5
				C358.5,82.8,359.8,82.9,360.6,83z"/>
			<path class="st0" d="M389.3,87.9v11.4c0,0.5-0.2,0.8-0.6,0.9c-1.3,0.5-3.7,0.7-7.2,0.7c-2.3,0-3.9-0.4-4.9-1
				c-0.9-0.7-1.4-2.1-1.4-4.2c0-3.8,1.9-5,5.8-5h5.3v-2.2c0-2.1-1.2-2.9-4.2-2.9h-4.9c-0.4,0-0.5-0.1-0.5-0.5v-1.3
				c0-0.4,0.1-0.4,0.5-0.5c1.5-0.3,3.2-0.4,4.9-0.4C387,82.8,389.3,84.4,389.3,87.9z M386.2,93.2H381c-1.9,0-2.7,0.7-2.7,2.4
				c0,2.1,1,2.6,3.8,2.6c1.8,0,3.2-0.1,4.2-0.4L386.2,93.2L386.2,93.2z"/>
			<path class="st0" d="M396.3,76.1c0.3,0,0.5,0.2,0.5,0.5v23.7c0,0.3-0.2,0.5-0.5,0.5h-2.2c-0.3,0-0.5-0.2-0.5-0.5V76.6
				c0-0.3,0.2-0.5,0.5-0.5H396.3z"/>
			<path class="st0" d="M404,76.1c0.3,0,0.5,0.2,0.5,0.5v23.7c0,0.3-0.2,0.5-0.5,0.5h-2.2c-0.3,0-0.5-0.2-0.5-0.5V76.6
				c0-0.3,0.2-0.5,0.5-0.5H404z"/>
			<path class="st0" d="M419.8,78c0.4-0.1,0.6,0,0.6,0.4v4.5h3.4c0.4,0,0.5,0.2,0.5,0.5v1.5c0,0.3-0.2,0.5-0.5,0.5h-3.4v11
				c0,1.4,0.4,1.8,2.1,1.8h1.6c0.4,0,0.5,0.2,0.5,0.5v1.6c0,0.3-0.2,0.5-0.5,0.5c-0.5,0.1-1.1,0.2-1.8,0.2c-1.3,0-1.7,0-2.8-0.3
				c-1.4-0.4-2.1-1.2-2.3-3.5V85.4h-1.8c-0.3,0-0.5-0.2-0.5-0.5v-1.5c0-0.3,0.2-0.5,0.5-0.5h1.8V79c0-0.3,0.1-0.5,0.4-0.5L419.8,78z
				"/>
			<path class="st0" d="M436.2,83.2c0.3,0.1,0.5,0.3,0.5,0.6v1.4c0,0.4-0.2,0.5-0.5,0.5h-2.8c-2.3,0-2.8,0.4-2.8,1.8v13
				c0,0.3-0.2,0.5-0.5,0.5H428c-0.3,0-0.5-0.2-0.5-0.5V86.8c0-1.4,0.6-2.4,1.2-2.9c0.4-0.3,0.8-0.5,1.3-0.6c1-0.3,1.6-0.3,2.6-0.3
				C434.3,82.8,435.5,82.9,436.2,83.2z"/>
			<path class="st0" d="M453.7,83c0.3,0,0.5,0.2,0.5,0.5V100c0,0.4-0.2,0.4-0.5,0.5c-1.8,0.4-4.1,0.5-6.8,0.5
				c-1.6,0-2.8-0.1-3.7-0.2c-0.8-0.2-1.6-0.5-2.3-1c-1.3-1.1-1.6-2.9-1.6-6.4v-9.9c0-0.3,0.2-0.5,0.6-0.5h2.1c0.3,0,0.5,0.2,0.5,0.5
				v9.6c0,2.5,0.1,3.8,0.9,4.4c0.8,0.7,1.4,0.7,3.2,0.7h4.5V83.4c0-0.3,0.2-0.5,0.5-0.5L453.7,83L453.7,83z"/>
			<path class="st0" d="M469.7,83.1c0.3,0,0.5,0.2,0.5,0.5V85c0,0.3-0.2,0.5-0.5,0.5h-6.1c-1.6,0-2.4,0.6-2.4,1.7v0.4
				c0,1,0.7,1.8,2,2.3l4.3,1.7c2.7,1,3.3,2.4,3.3,4.6v0.4c0,1.7-0.5,2.9-1.5,3.5s-2.7,0.9-5.1,0.9c-2.3,0-4.3-0.1-6-0.3
				c-0.3,0-0.5-0.2-0.5-0.5v-1.4c0-0.3,0.2-0.5,0.5-0.5h6c2.6,0,3.4-0.3,3.4-1.7v-0.4c0-1-0.5-1.6-1.9-2.2l-4.6-1.8
				c-2.1-0.8-3.1-2.3-3.1-4.7v-0.6c0-1.7,0.7-2.9,2-3.4s2.6-0.7,4.6-0.7C466.4,82.8,468.1,82.9,469.7,83.1z"/>
			<path class="st0" d="M477.9,78c0.4-0.1,0.6,0,0.6,0.4v4.5h3.4c0.4,0,0.5,0.2,0.5,0.5v1.5c0,0.3-0.2,0.5-0.5,0.5h-3.4v11
				c0,1.4,0.4,1.8,2.1,1.8h1.6c0.4,0,0.5,0.2,0.5,0.5v1.6c0,0.3-0.2,0.5-0.5,0.5c-0.5,0.1-1.1,0.2-1.8,0.2c-1.3,0-1.7,0-2.8-0.3
				c-1.4-0.4-2.1-1.2-2.3-3.5V85.4h-1.8c-0.3,0-0.5-0.2-0.5-0.5v-1.5c0-0.3,0.2-0.5,0.5-0.5h1.8V79c0-0.3,0.1-0.5,0.4-0.5L477.9,78z
				"/>
		</g>
	</g>
</g>
</svg>
