<?xml version="1.0" encoding="UTF-8"?><svg id="Layer_1" xmlns="http://www.w3.org/2000/svg" viewBox="0 0 178.4 26.58"><defs><style>.cls-1{fill:#fff;}</style></defs><path class="cls-1" d="M150.19,14.92c0,1.24-1.07,1.94-2.93,1.94h-4.73v-3.91h4.67c2.05,0,3,.76,3,1.91v.06ZM142.53,5.09h3.97c1.83,0,2.78.67,2.78,1.82v.06c0,1.24-1.04,1.85-2.9,1.85h-3.85v-3.73ZM151.92,10.49c1.95-.82,3.41-2.27,3.41-4.73v-.06c0-1.46-.54-2.58-1.42-3.43-1.29-1.24-3.25-1.91-6.02-1.91h-10.23c-.53,0-1.1.45-1.1,1.11v19.02c0,.56.52,1.1,1.1,1.1h10.29c5.27,0,8.36-2.22,8.36-5.86v-.06c0-2.88-1.7-4.34-4.38-5.19"/><path class="cls-1" d="M42.61,21.59c.61,0,1.11-.5,1.11-1.11v-2.78c0-.62-.5-1.12-1.11-1.12h-10.59s0-3.36,0-3.36h9.57c.57,0,1.03-.46,1.03-1.03v-2.57c0-.57-.46-1.03-1.03-1.03h-9.57s0-3.21,0-3.21h10.59c.61,0,1.11-.49,1.11-1.11V1.48c0-.62-.5-1.12-1.11-1.12h-15.31c-.74,0-1.34.6-1.34,1.35v18.52c0,.75.61,1.35,1.35,1.35h15.3Z"/><path class="cls-1" d="M70.69,24.88l-9.9-13.95,6.32-8.9c.11-.18.15-.35.15-.55,0-.57-.47-1.11-1.1-1.11-.04,0-4.04,0-4.09,0-.37,0-.69.2-.97.59l-3.7,5.2-3.69-5.19c-.26-.36-.57-.6-.97-.6-.04,0-4.06,0-4.1,0-.6,0-1.11.55-1.1,1.11,0,.33.15.55.32.79l6.15,8.66-6.39,9c-.1.15-.14.34-.14.54,0,.58.5,1.11,1.1,1.11.03,0,4.05,0,4.09,0,.32,0,.67-.19.85-.41l3.89-5.47,7.46,10.51c.17.21.49.36.81.36.03,0,4.05,0,4.09,0,.65,0,1.1-.54,1.1-1.11,0-.21-.06-.41-.17-.58"/><path class="cls-1" d="M88.34.36h-17.08c-.63,0-1.14.51-1.14,1.15v2.85c0,.63.51,1.15,1.14,1.15h5.48v14.71c0,.76.6,1.38,1.35,1.38h3.42c.75,0,1.36-.62,1.36-1.38V5.51s5.48,0,5.48,0c.63,0,1.14-.52,1.14-1.15V1.51c0-.63-.51-1.15-1.14-1.15"/><path class="cls-1" d="M118.45,13.22l2.49-6.03,2.46,6.03h-4.95ZM132.73,20.13L124.25.83c-.17-.35-.52-.62-.94-.62h-4.53c-.32,0-.81.21-.94.54l-8.41,19.13c-.12.26-.18.48-.18.61,0,.58.5,1.11,1.1,1.11h4.04c.57,0,.85-.39,1.07-.84l1.23-2.96h8.51l1.37,3.22c.15.33.54.57.96.57h4.16c.58,0,1.1-.53,1.1-1.11,0-.12-.01-.24-.06-.36"/><path class="cls-1" d="M170.17,8.37c-3.06-.67-3.82-1.09-3.82-2.06v-.06c0-.76.72-1.36,2.21-1.36,1.66,0,3.5.55,5.26,1.52.69.38,1.15.21,1.49-.22l1.87-2.54c.34-.55.18-1.17-.52-1.61-2.18-1.34-4.77-2.04-7.95-2.04-5.3,0-8.55,2.85-8.55,6.79v.06c0,4.37,3.63,5.64,8.33,6.67,3,.67,3.72,1.15,3.72,2.03v.06c0,.91-.88,1.45-2.52,1.45-2.22,0-4.34-.66-6.28-1.93-.07-.04-.13-.09-.2-.13-.15-.08-.32-.13-.5-.13-.29,0-.55.12-.75.3,0,0-2.11,2.4-2.16,2.48-.12.18-.18.38-.18.61,0,.34.16.64.4.85.05.03.09.07.14.1,2.59,1.81,5.88,2.73,9.32,2.73,5.36,0,8.92-2.58,8.92-6.91v-.06c0-3.97-3.15-5.55-8.23-6.61"/><path class="cls-1" d="M19.52.36h-3.38c-.74,0-1.34.6-1.34,1.35v9.86S6.14.9,6.14.9c-.22-.28-.45-.53-.94-.53H1.34C.6.36,0,.97,0,1.72v18.52c0,.75.6,1.36,1.34,1.36h3.38c.74,0,1.34-.61,1.34-1.36v-10.29s9.18,11.34,9.18,11.34c.17.17.46.31.77.31h3.5c.74,0,1.34-.61,1.34-1.36V1.72c.01-.75-.59-1.35-1.33-1.35"/><path class="cls-1" d="M93.15,20.24c0,.75.6,1.36,1.34,1.36h10.79c.63,0,1.14-.52,1.14-1.15v-2.86c0-.63-.51-1.15-1.14-1.15h-6.01s0-14.7,0-14.7c0-.76-.61-1.37-1.36-1.37h-3.41c-.75,0-1.35.61-1.35,1.37v18.5Z"/></svg>